<svg width="124" height="33" viewBox="0 0 124 33" fill="none" xmlns="http://www.w3.org/2000/svg">
<path d="M44.148 29.9329C40.6548 29.9329 38.7696 28.1288 38.7696 24.7524V14.8652H37.5548C36.9715 14.8552 36.416 14.6138 36.0109 14.1941C35.6057 13.7744 35.3841 13.2109 35.3949 12.6277C35.4222 11.4532 36.3797 10.5138 37.5548 10.5086H38.7696V7.56562C38.8715 6.25363 39.9661 5.24097 41.2824 5.24097C42.5987 5.24097 43.6933 6.25363 43.7952 7.56562V10.5086H45.756C46.9305 10.5486 47.8619 11.512 47.8619 12.6869C47.8619 13.8618 46.9305 14.8252 45.756 14.8652H43.7952V23.4195C43.7952 24.9111 44.7378 25.4982 45.5216 25.4982H45.9526C47.3665 25.4982 48.1528 26.4406 48.1528 27.6576C48.1528 28.8746 47.4068 29.9329 44.148 29.9329Z" fill="#FF4C00"/>
<path fill-rule="evenodd" clip-rule="evenodd" d="M49.8366 19.9644C49.8366 25.3817 53.607 29.9323 59.8473 29.9323C66.128 29.9323 69.8959 25.3817 69.8959 19.9644C69.8959 14.5899 66.128 10.0369 59.8473 10.0369C53.6171 10.0369 49.8366 14.5899 49.8366 19.9644ZM55.0168 19.9645C55.0168 17.0215 56.7433 14.4716 59.8458 14.4716C62.9458 14.4716 64.7125 17.0215 64.7125 19.9645C64.7125 22.9579 62.9483 25.5078 59.8458 25.5078C56.7433 25.5078 55.0168 22.9478 55.0168 19.9645Z" fill="#FF4C00"/>
<path fill-rule="evenodd" clip-rule="evenodd" d="M87.1262 29.698H87.5194C88.8732 29.6855 89.9613 28.5796 89.9515 27.2262V17.218C89.9515 11.7628 85.987 10.0369 81.6697 10.0369C79.472 10.0369 75.2328 10.823 74.0558 12.7052C73.8827 13.0043 73.7882 13.3424 73.7811 13.6879C73.7768 14.7367 74.6173 15.5939 75.6663 15.6104C75.9855 15.5971 76.2961 15.5026 76.5686 15.3358C77.8274 14.5139 79.3046 14.0899 80.8078 14.1188C83.318 14.1188 84.9663 15.3736 84.9663 17.2961V19.8485C83.7112 18.3569 81.4832 17.5329 78.9629 17.5329C75.9385 17.5329 72.3672 19.2186 72.3672 23.6532C72.3672 27.8914 75.9385 29.9323 78.9629 29.9323C81.4378 29.9323 83.6734 29.0302 84.9663 27.5008C84.9663 29.383 86.7331 29.698 87.1262 29.698ZM80.9626 20.9042C82.5731 20.9042 84.1407 21.4535 84.9649 22.5521V24.908C84.1407 26.0066 82.5731 26.5559 80.9626 26.5559C78.9993 26.5559 77.3913 25.5329 77.3913 23.7691C77.3913 21.9121 78.9993 20.9042 80.9626 20.9042Z" fill="#FF4C00"/>
<path d="M101.729 29.932C99.2561 29.932 95.2917 29.1081 94.1147 27.4123C93.8818 27.1091 93.7575 26.7364 93.7618 26.354C93.782 25.2144 94.7012 24.2955 95.8411 24.2753C96.2022 24.2739 96.5562 24.3753 96.8618 24.5676C98.3539 25.4293 100.315 26.097 101.963 26.097C104.123 26.097 105.144 25.2328 105.144 24.0561C105.144 20.9166 93.8778 23.4665 93.8778 16.0107C93.8778 12.8334 96.6652 10.0466 101.65 10.0466C104.123 10.0466 107.498 10.8328 108.559 12.3622C108.761 12.6457 108.872 12.9842 108.876 13.3323C108.841 14.3876 107.972 15.2231 106.915 15.217C106.587 15.2184 106.263 15.1379 105.973 14.9827C104.667 14.2387 103.191 13.8462 101.688 13.8438C99.8837 13.8438 98.7067 14.6677 98.7067 15.7285C98.7067 18.5531 109.932 16.1972 109.932 23.8495C109.932 27.304 106.989 29.932 101.729 29.932Z" fill="#FF4C00"/>
<path d="M119.984 29.9329C116.491 29.9329 114.606 28.1288 114.606 24.7524V14.8652H113.391C112.807 14.8552 112.252 14.6138 111.847 14.1941C111.442 13.7744 111.22 13.2109 111.231 12.6277C111.259 11.4537 112.216 10.5151 113.391 10.5086H114.606V7.56562C114.707 6.25363 115.802 5.24097 117.118 5.24097C118.435 5.24097 119.529 6.25363 119.631 7.56562V10.5086H121.594C122.769 10.5486 123.7 11.512 123.7 12.6869C123.7 13.8618 122.769 14.8252 121.594 14.8652H119.631V23.4195C119.631 24.9111 120.574 25.4982 121.358 25.4982H121.791C123.202 25.4982 123.989 26.4406 123.989 27.6576C123.989 28.8746 123.245 29.9329 119.984 29.9329Z" fill="#FF4C00"/>
<path fill-rule="evenodd" clip-rule="evenodd" d="M31.9172 15.8474C32.1219 17.9356 32.2119 20.0334 32.1869 22.1315C32.1869 22.3658 32.1844 22.6027 32.1567 22.8395C32.1567 25.0593 32.1365 27.3271 31.6526 29.5015C31.1695 31.6702 28.5872 31.6335 26.8646 31.609C26.7718 31.6077 26.6816 31.6064 26.5943 31.6055C24.9167 31.5898 23.2473 31.3724 21.5782 31.1549C20.0276 30.953 18.4774 30.751 16.9213 30.711C15.1702 30.6647 13.4191 30.9017 11.677 31.1375C11.1424 31.2098 10.6087 31.2821 10.0761 31.346C9.44783 31.4204 8.80436 31.5363 8.15502 31.6533C6.67355 31.9201 5.16153 32.1925 3.72991 31.991C1.20454 31.6231 0.478688 28.3072 0.26446 26.0798C-0.0808247 22.4767 -0.290012 19.5967 0.967631 15.1167C1.386 13.625 2.03625 12.5214 2.92592 11.2943C2.92592 11.2932 2.83825 11.2007 2.7232 11.0792C2.57364 10.9213 2.3778 10.7146 2.26812 10.5964C1.82506 10.1485 1.47476 9.61761 1.23731 9.03415C0.362753 6.67824 2.35381 4.56927 4.08023 3.4858C10.7188 -0.681758 19.8827 -0.98916 26.7304 2.66942C28.6358 3.68738 30.5638 5.21934 31.3728 7.38375C31.9903 9.03415 32.1239 11.317 30.3798 12.2442C30.1947 12.3055 29.9963 12.3137 29.807 12.268C31.2952 12.6438 31.7665 14.4409 31.9172 15.8474ZM23.8536 27.395C25.4376 27.531 27.6917 27.7245 28.491 25.8934C28.6131 25.6152 28.7012 25.3233 28.7531 25.0241C29.2111 22.3052 29.2959 19.5366 29.0052 16.7948C28.8187 15.0864 28.3978 12.6801 26.7369 11.8839C29.4311 10.3141 26.5478 7.1595 25.0634 6.24486C20.3 3.30438 13.243 3.07761 8.2024 5.36801C6.75825 6.01808 4.12451 7.91289 5.17801 10.1554C5.3643 10.5497 5.64671 10.7842 5.93741 11.0257C6.08326 11.1468 6.23119 11.2696 6.37012 11.4152C6.32728 11.3699 5.51321 12.2266 4.95874 13.6527C4.54781 14.6377 4.24445 15.6641 4.05394 16.7141C3.74898 18.4147 3.58042 20.137 3.54988 21.8644C3.57004 23.7718 3.84728 26.0445 5.38971 27.3749C6.54327 28.3736 8.21666 27.9258 9.6326 27.5468C9.92432 27.4687 10.2051 27.3936 10.4682 27.3346C12.5273 26.876 14.6166 26.4704 16.7287 26.5334C18.0982 26.5753 19.4512 26.7848 20.8043 26.9944C21.8092 27.15 22.8141 27.3056 23.8259 27.3926L23.8536 27.395Z" fill="#FF4C00"/>
</svg>
